<svg xmlns="http://www.w3.org/2000/svg" width="142" height="24" viewBox="0 0 142 24">
    <g fill="none" fill-rule="evenodd">
        <path fill="#003DA5" fill-rule="nonzero" d="M27.958.293h4.062c2.088 0 3.855.88 3.855 3.203 0 1.394-.541 1.981-1.792 2.397v.073c.17.134.38.282.565.55l2.013 2.996h-3.879L31.31 6.553h-.06v2.959h-3.29L27.958.293zm3.29 4.084h.233c.552 0 1.106-.085 1.106-.77 0-.71-.505-.795-1.08-.795h-.258l-.001 1.565z"/>
        <path fill="#003DA5" d="M37.017.293h6.223v2.52h-2.835v.878h2.589v2.397h-2.59v.905h2.935v2.52h-6.322z"/>
        <path fill="#003DA5" fill-rule="nonzero" d="M47.267 9.513h-3.561L46.924.294h3.72l3.3 9.22h-3.558l-.307-1.15h-2.543l-.27 1.15zm2.222-3.338l-.394-1.626c-.098-.392-.16-.795-.22-1.186h-.123l-.614 2.812h1.35z"/>
        <path fill="#003DA5" d="M54.46.293h3.363v6.261h2.824v2.958H54.46zM72.273 4.035c-.541-.502-1.216-.93-1.977-.93-1.005 0-1.829.797-1.829 1.798 0 1.015.871 1.797 1.876 1.797.775 0 1.388-.33 1.93-.856l-.099 3.449c-.54.256-1.792.366-2.393.366-2.639 0-4.702-2.042-4.702-4.671 0-2.69 2.123-4.842 4.837-4.842.76 0 1.547.135 2.258.38l.099 3.509"/>
        <path fill="#003DA5" fill-rule="nonzero" d="M76.102 9.513H72.54L75.759.294h3.718l3.303 9.22h-3.56l-.309-1.15h-2.54l-.27 1.15zm2.22-3.338l-.391-1.626c-.1-.392-.162-.795-.222-1.186h-.124l-.612 2.812h1.35z"/>
        <path fill="#003DA5" d="M83.244.293h3.227l3.02 5.111h.098c-.136-.771-.283-1.566-.283-2.349V.293h3.218v9.219h-3.218l-2.959-4.843h-.096c.111.636.207 1.234.207 1.848v2.995h-3.216l.002-9.219"/>
        <path fill="#003DA5" fill-rule="nonzero" d="M96.54 9.513h-3.56L96.197.294h3.72l3.301 9.22h-3.56l-.308-1.15H96.81l-.27 1.15zm2.22-3.338l-.392-1.626c-.098-.392-.16-.795-.221-1.186h-.123l-.612 2.812h1.348zM103.757.293h3.424c3.105 0 5.488 1.357 5.488 4.745 0 2.738-1.942 4.474-4.653 4.474h-4.26V.293zm3.364 6.456h.208c1.116 0 1.977-.514 1.977-1.724 0-1.296-.748-1.846-1.977-1.846h-.208v3.57z"/>
        <path fill="#003DA5" d="M113.63.293h3.362v9.22h-3.363z"/>
        <path fill="#003DA5" fill-rule="nonzero" d="M121.09 9.513h-3.558l3.217-9.219h3.72l3.302 9.22h-3.56l-.308-1.15h-2.54l-.272 1.15zm2.224-3.338l-.392-1.626c-.099-.392-.16-.795-.223-1.186h-.122l-.614 2.812h1.35z"/>
        <path fill="#003DA5" d="M128.237.293h3.228l3.02 5.111h.097c-.134-.771-.282-1.566-.282-2.349V.293h3.216v9.219H134.3l-2.958-4.843h-.098c.11.636.209 1.234.209 1.848v2.995h-3.218l.002-9.219"/>
        <path fill="#DA291C" d="M28.863 19.395l.223.177c.783.603 1.725 1.096 2.73 1.096.433 0 1.12-.176 1.12-.715 0-.542-.576-.59-.976-.67l-.877-.16c-1.709-.301-3.147-1.305-3.147-3.181 0-2.848 2.604-4.44 5.223-4.44 1.374 0 2.635.336 3.818 1.051l-1.182 3.07c-.75-.508-1.597-.907-2.54-.907-.383 0-.942.144-.942.637 0 .446.542.509.878.589l.99.224c1.854.413 3.195 1.399 3.195 3.435 0 2.866-2.62 4.28-5.224 4.28-1.517 0-3.274-.414-4.633-1.098l1.344-3.388M49.42 11.694v7.098c0 3.499-2.204 5.09-5.575 5.09-3.369 0-5.573-1.591-5.573-5.09v-7.098h4.375v6.684c0 .94.033 1.766 1.198 1.766 1.168 0 1.2-.827 1.2-1.766v-6.684h4.376"/>
        <path fill="#DA291C" fill-rule="nonzero" d="M50.534 11.695h5.544c2.81 0 4.888 1.431 4.888 4.406 0 2.45-1.533 3.977-3.977 3.977H54.75v3.611h-4.217V11.695zm4.216 5.363h.432c.768 0 1.598-.128 1.598-1.099 0-.94-.894-.985-1.612-.985h-.417v2.084z"/>
        <path fill="#DA291C" d="M61.978 11.694h8.1v3.28h-3.69v1.144h3.37v3.116h-3.37v1.179h3.817v3.276h-8.227z"/>
        <path fill="#DA291C" fill-rule="nonzero" d="M71.33 11.695h5.288c2.715 0 5.019 1.145 5.019 4.169 0 1.813-.706 2.577-2.334 3.117v.096c.223.174.494.366.735.715l2.62 3.896H77.61l-1.917-3.849h-.08v3.85H71.33V11.694zm4.282 5.314h.303c.719 0 1.438-.11 1.438-1.002 0-.923-.655-1.033-1.406-1.033h-.335v2.035z"/>
        <path fill="#DA291C" d="M84.3 19.395l.224.177c.782.603 1.727 1.096 2.732 1.096.43 0 1.117-.176 1.117-.715 0-.542-.576-.59-.973-.67l-.88-.16c-1.71-.301-3.145-1.305-3.145-3.181 0-2.848 2.602-4.44 5.222-4.44 1.375 0 2.636.336 3.818 1.051l-1.182 3.07c-.75-.508-1.597-.907-2.54-.907-.382 0-.942.144-.942.637 0 .446.544.509.88.589l.991.224c1.852.413 3.193 1.399 3.193 3.435 0 2.866-2.62 4.28-5.222 4.28-1.517 0-3.275-.414-4.633-1.098l1.34-3.388M93.323 11.694h9.201v3.898l-2.414-.11v8.207h-4.375v-8.208l-2.412.111z"/>
        <path fill="#DA291C" fill-rule="nonzero" d="M116.59 17.726c0 3.85-2.989 6.155-6.662 6.155-3.674 0-6.662-2.306-6.662-6.155 0-3.771 3.002-6.224 6.662-6.224 3.657 0 6.661 2.453 6.661 6.224m-8.913.061c0 1.369.927 2.308 2.252 2.308 1.325 0 2.251-.94 2.251-2.308 0-1.273-.861-2.338-2.251-2.338-1.389 0-2.252 1.066-2.252 2.338M117.546 11.695h5.288c2.716 0 5.016 1.145 5.016 4.169 0 1.813-.703 2.577-2.332 3.117v.096c.224.174.494.366.737.715l2.62 3.896h-5.05l-1.916-3.849h-.08v3.85h-4.282l-.001-11.994zm4.28 5.314h.305c.72 0 1.437-.11 1.437-1.002 0-.923-.655-1.033-1.406-1.033h-.336v2.035z"/>
        <path fill="#DA291C" d="M129.29 11.694h8.098v3.28H133.7v1.144h3.369v3.116h-3.37v1.179h3.817v3.276h-8.226zM28.863 19.395l.223.177c.783.603 1.725 1.096 2.73 1.096.433 0 1.12-.176 1.12-.715 0-.542-.576-.59-.976-.67l-.877-.16c-1.709-.301-3.147-1.305-3.147-3.181 0-2.848 2.604-4.44 5.223-4.44 1.374 0 2.635.336 3.818 1.051l-1.182 3.07c-.75-.508-1.597-.907-2.54-.907-.383 0-.942.144-.942.637 0 .446.542.509.878.589l.99.224c1.854.413 3.195 1.399 3.195 3.435 0 2.866-2.62 4.28-5.224 4.28-1.517 0-3.274-.414-4.633-1.098l1.344-3.388M49.42 11.694v7.098c0 3.499-2.204 5.09-5.575 5.09-3.369 0-5.573-1.591-5.573-5.09v-7.098h4.375v6.684c0 .94.033 1.766 1.198 1.766 1.168 0 1.2-.827 1.2-1.766v-6.684h4.376"/>
        <path fill="#DA291C" fill-rule="nonzero" d="M50.534 11.695h5.544c2.81 0 4.888 1.431 4.888 4.406 0 2.45-1.533 3.977-3.977 3.977H54.75v3.611h-4.217V11.695zm4.216 5.363h.432c.768 0 1.598-.128 1.598-1.099 0-.94-.894-.985-1.612-.985h-.417v2.084z"/>
        <path fill="#DA291C" d="M61.93 11.694h8.1v3.28h-3.69v1.144h3.37v3.116h-3.37v1.179h3.817v3.276h-8.228z"/>
        <path fill="#DA291C" fill-rule="nonzero" d="M71.284 11.695h5.286c2.717 0 5.018 1.145 5.018 4.169 0 1.813-.706 2.577-2.334 3.117v.096c.224.174.495.366.736.715l2.62 3.896h-5.047l-1.917-3.849h-.081v3.85h-4.279l-.002-11.994zm4.28 5.314h.305c.716 0 1.436-.11 1.436-1.002 0-.923-.654-1.033-1.404-1.033h-.336v2.035z"/>
        <path fill="#DA291C" d="M84.252 19.395l.223.177c.783.603 1.727 1.096 2.732 1.096.432 0 1.117-.176 1.117-.715 0-.542-.574-.59-.975-.67l-.876-.16c-1.711-.301-3.147-1.305-3.147-3.181 0-2.848 2.603-4.44 5.222-4.44 1.375 0 2.637.336 3.82 1.051l-1.182 3.07c-.75-.508-1.6-.907-2.542-.907-.383 0-.943.144-.943.637 0 .446.546.509.88.589l.992.224c1.851.413 3.193 1.399 3.193 3.435 0 2.866-2.619 4.28-5.222 4.28-1.518 0-3.274-.414-4.632-1.098l1.34-3.388"/>
        <path fill="#DA291C" fill-rule="nonzero" d="M116.542 17.726c0 3.85-2.988 6.155-6.661 6.155-3.674 0-6.662-2.306-6.662-6.155 0-3.771 3.001-6.224 6.662-6.224 3.657 0 6.661 2.453 6.661 6.224m-8.913.061c0 1.369.927 2.308 2.252 2.308 1.326 0 2.253-.94 2.253-2.308 0-1.273-.862-2.338-2.253-2.338-1.39 0-2.252 1.066-2.252 2.338M117.5 11.695h5.286c2.715 0 5.015 1.145 5.015 4.169 0 1.813-.702 2.577-2.332 3.117v.096c.225.174.493.366.736.715l2.62 3.896h-5.047l-1.917-3.849h-.08v3.85h-4.28l-.002-11.994zm4.28 5.314h.303c.72 0 1.438-.11 1.438-1.002 0-.923-.656-1.033-1.406-1.033h-.336v2.035z"/>
        <path fill="#DA291C" d="M129.29 11.694h8.098v3.28H133.7v1.144h3.369v3.116h-3.37v1.179h3.817v3.276h-8.226z"/>
        <path fill="#003DA5" d="M23.58.295H.091v11.7c0 6.458 5.258 11.695 11.743 11.695H23.58V.295"/>
        <path fill="#DA291C" d="M16.603 9.344l1.965-.249-.471 2.336.751.55-3.163 2.923.134 1.259-2.922-.245-.017.798.048 2.808-.713.013-.743.012.106-2.882v-.73l-2.974.248.233-1.285-3.245-2.83.655-.674-.49-2.539 2.095.458.448-.922 1.894 1.81-.644-3.98 1.412.428 1.29-2.308 1.235 2.325 1.334-.397-.615 3.73 1.921-1.612z"/>
        <path fill="#003DA5" fill-rule="nonzero" d="M139.604.634h-.415v1.572h-.277V.634h-.413v-.34h1.105v.34zm1.875 1.57h-.279V.685h-.007l-.397 1.52h-.27l-.384-1.52h-.007v1.52h-.28V.295h.486l.319 1.248h.007l.332-1.249h.483v1.912h-.003z"/>
    </g>
</svg>
